<svg width="17" height="14" viewBox="0 0 17 14" fill="none" xmlns="http://www.w3.org/2000/svg">
<path d="M5.87499 10.0417L13.2917 8.08334C13.5 8.02779 13.6562 7.89932 13.7604 7.69793C13.8646 7.49654 13.8889 7.29168 13.8333 7.08334C13.7778 6.87501 13.6562 6.71876 13.4687 6.61459C13.2812 6.51043 13.0833 6.48612 12.875 6.54168L10.8333 7.08334L7.49999 3.95834L6.33332 4.25001L8.33332 7.75001L6.33332 8.25001L5.29166 7.45834L4.49999 7.66668L5.87499 10.0417ZM15.1667 13.6667H1.83332C1.37499 13.6667 0.982629 13.5035 0.65624 13.1771C0.329851 12.8507 0.166656 12.4583 0.166656 12V8.66668C0.62499 8.66668 1.01735 8.50348 1.34374 8.17709C1.67013 7.8507 1.83332 7.45834 1.83332 7.00001C1.83332 6.54168 1.67013 6.14932 1.34374 5.82293C1.01735 5.49654 0.62499 5.33334 0.166656 5.33334V2.00001C0.166656 1.54168 0.329851 1.14932 0.65624 0.822927C0.982629 0.496538 1.37499 0.333344 1.83332 0.333344H15.1667C15.625 0.333344 16.0174 0.496538 16.3437 0.822927C16.6701 1.14932 16.8333 1.54168 16.8333 2.00001V12C16.8333 12.4583 16.6701 12.8507 16.3437 13.1771C16.0174 13.5035 15.625 13.6667 15.1667 13.6667ZM15.1667 12V2.00001H1.83332V4.12501C2.34721 4.43057 2.75346 4.83682 3.05207 5.34376C3.35068 5.8507 3.49999 6.40279 3.49999 7.00001C3.49999 7.59723 3.35068 8.14932 3.05207 8.65626C2.75346 9.1632 2.34721 9.56945 1.83332 9.87501V12H15.1667Z" fill="#92852D"/>
</svg>
