<svg width="15" height="16" viewBox="0 0 15 16" fill="none" xmlns="http://www.w3.org/2000/svg">
<path d="M0.833313 15.5V2.16667C0.833313 1.70833 0.996507 1.31597 1.3229 0.989583C1.64929 0.663194 2.04165 0.5 2.49998 0.5H7.49998C7.95831 0.5 8.35067 0.663194 8.67706 0.989583C9.00345 1.31597 9.16665 1.70833 9.16665 2.16667V8H9.99998C10.4583 8 10.8507 8.16319 11.1771 8.48958C11.5035 8.81597 11.6666 9.20833 11.6666 9.66667V13.4167C11.6666 13.6528 11.7465 13.8507 11.9062 14.0104C12.066 14.1701 12.2639 14.25 12.5 14.25C12.7361 14.25 12.934 14.1701 13.0937 14.0104C13.2535 13.8507 13.3333 13.6528 13.3333 13.4167V7.41667C13.2083 7.48611 13.0764 7.53125 12.9375 7.55208C12.7986 7.57292 12.6528 7.58333 12.5 7.58333C11.9166 7.58333 11.4236 7.38194 11.0208 6.97917C10.618 6.57639 10.4166 6.08333 10.4166 5.5C10.4166 5.05556 10.5382 4.65625 10.7812 4.30208C11.0243 3.94792 11.3472 3.69444 11.75 3.54167L9.99998 1.79167L10.875 0.916667L13.9583 3.91667C14.1666 4.125 14.3229 4.36806 14.4271 4.64583C14.5312 4.92361 14.5833 5.20833 14.5833 5.5V13.4167C14.5833 14 14.3819 14.4931 13.9791 14.8958C13.5764 15.2986 13.0833 15.5 12.5 15.5C11.9166 15.5 11.4236 15.2986 11.0208 14.8958C10.618 14.4931 10.4166 14 10.4166 13.4167V9.25H9.16665V15.5H0.833313ZM2.49998 6.33333H7.49998V2.16667H2.49998V6.33333ZM12.5 6.33333C12.7361 6.33333 12.934 6.25347 13.0937 6.09375C13.2535 5.93403 13.3333 5.73611 13.3333 5.5C13.3333 5.26389 13.2535 5.06597 13.0937 4.90625C12.934 4.74653 12.7361 4.66667 12.5 4.66667C12.2639 4.66667 12.066 4.74653 11.9062 4.90625C11.7465 5.06597 11.6666 5.26389 11.6666 5.5C11.6666 5.73611 11.7465 5.93403 11.9062 6.09375C12.066 6.25347 12.2639 6.33333 12.5 6.33333ZM2.49998 13.8333H7.49998V8H2.49998V13.8333Z" fill="#92852D"/>
</svg>
