<svg width="15" height="16" viewBox="0 0 15 16" fill="none" xmlns="http://www.w3.org/2000/svg">
<path d="M6.25 12.1667H8.75V9.25H11.6667V6.75H8.75V3.83333H6.25V6.75H3.33333V9.25H6.25V12.1667ZM1.66667 15.5C1.20833 15.5 0.815972 15.3368 0.489583 15.0104C0.163194 14.684 0 14.2917 0 13.8333V2.16667C0 1.70833 0.163194 1.31597 0.489583 0.989583C0.815972 0.663194 1.20833 0.5 1.66667 0.5H13.3333C13.7917 0.5 14.184 0.663194 14.5104 0.989583C14.8368 1.31597 15 1.70833 15 2.16667V13.8333C15 14.2917 14.8368 14.684 14.5104 15.0104C14.184 15.3368 13.7917 15.5 13.3333 15.5H1.66667ZM1.66667 13.8333H13.3333V2.16667H1.66667V13.8333Z" fill="#92852D"/>
</svg>
