<svg width="19" height="16" viewBox="0 0 19 16" fill="none" xmlns="http://www.w3.org/2000/svg">
<path d="M0.333313 15.5V5.5H1.99998V7.16667H3.66665V0.5H5.33331V2.16667H6.99998V0.5H8.66665V2.16667H10.3333V0.5H12V2.16667H13.6666V0.5H15.3333V7.16667H17V5.5H18.6666V15.5H11.1666V13C11.1666 12.5417 11.0035 12.1493 10.6771 11.8229C10.3507 11.4965 9.95831 11.3333 9.49998 11.3333C9.04165 11.3333 8.64929 11.4965 8.3229 11.8229C7.99651 12.1493 7.83331 12.5417 7.83331 13V15.5H0.333313ZM1.99998 13.8333H6.16665V13C6.16665 12.0833 6.49304 11.2986 7.14581 10.6458C7.79859 9.99306 8.58331 9.66667 9.49998 9.66667C10.4166 9.66667 11.2014 9.99306 11.8541 10.6458C12.5069 11.2986 12.8333 12.0833 12.8333 13V13.8333H17V8.83333H13.6666V3.83333H5.33331V8.83333H1.99998V13.8333ZM6.99998 8H8.66665V5.5H6.99998V8ZM10.3333 8H12V5.5H10.3333V8Z" fill="#92852D"/>
</svg>
