<svg width="13" height="18" viewBox="0 0 13 18" fill="none" xmlns="http://www.w3.org/2000/svg">
<path d="M6.49996 17.3333C5.02774 17.3333 3.82635 17.1007 2.89579 16.6354C1.96524 16.1701 1.49996 15.5694 1.49996 14.8333C1.49996 14.5 1.60065 14.191 1.80204 13.9062C2.00343 13.6215 2.28468 13.375 2.64579 13.1667L3.95829 14.3958C3.83329 14.4514 3.69788 14.5139 3.55204 14.5833C3.40621 14.6528 3.29163 14.7361 3.20829 14.8333C3.38885 15.0555 3.80552 15.25 4.45829 15.4167C5.11107 15.5833 5.79163 15.6667 6.49996 15.6667C7.20829 15.6667 7.89232 15.5833 8.55204 15.4167C9.21177 15.25 9.6319 15.0555 9.81246 14.8333C9.71524 14.7222 9.59024 14.6319 9.43746 14.5625C9.28468 14.493 9.13885 14.4305 8.99996 14.375L10.2916 13.125C10.6805 13.3472 10.9791 13.6007 11.1875 13.8854C11.3958 14.1701 11.5 14.4861 11.5 14.8333C11.5 15.5694 11.0347 16.1701 10.1041 16.6354C9.17357 17.1007 7.97218 17.3333 6.49996 17.3333ZM6.52079 12.75C7.89579 11.7361 8.93052 10.7187 9.62496 9.69791C10.3194 8.67707 10.6666 7.65277 10.6666 6.62499C10.6666 5.20832 10.2152 4.13888 9.31246 3.41666C8.40968 2.69443 7.47218 2.33332 6.49996 2.33332C5.52774 2.33332 4.59024 2.69443 3.68746 3.41666C2.78468 4.13888 2.33329 5.20832 2.33329 6.62499C2.33329 7.55555 2.67357 8.52429 3.35413 9.53124C4.03468 10.5382 5.09024 11.6111 6.52079 12.75ZM6.49996 14.8333C4.54163 13.3889 3.07982 11.9861 2.11454 10.625C1.14926 9.26388 0.666626 7.93055 0.666626 6.62499C0.666626 5.63888 0.843709 4.7743 1.19788 4.03124C1.55204 3.28818 2.0069 2.66666 2.56246 2.16666C3.11802 1.66666 3.74302 1.29166 4.43746 1.04166C5.1319 0.791656 5.8194 0.666656 6.49996 0.666656C7.18052 0.666656 7.86802 0.791656 8.56246 1.04166C9.2569 1.29166 9.8819 1.66666 10.4375 2.16666C10.993 2.66666 11.4479 3.28818 11.802 4.03124C12.1562 4.7743 12.3333 5.63888 12.3333 6.62499C12.3333 7.93055 11.8507 9.26388 10.8854 10.625C9.9201 11.9861 8.45829 13.3889 6.49996 14.8333ZM6.49996 8.16666C6.95829 8.16666 7.35065 8.00346 7.67704 7.67707C8.00343 7.35068 8.16663 6.95832 8.16663 6.49999C8.16663 6.04166 8.00343 5.6493 7.67704 5.32291C7.35065 4.99652 6.95829 4.83332 6.49996 4.83332C6.04163 4.83332 5.64927 4.99652 5.32288 5.32291C4.99649 5.6493 4.83329 6.04166 4.83329 6.49999C4.83329 6.95832 4.99649 7.35068 5.32288 7.67707C5.64927 8.00346 6.04163 8.16666 6.49996 8.16666Z" fill="#92852D"/>
</svg>
