<svg width="15" height="18" viewBox="0 0 15 18" fill="none" xmlns="http://www.w3.org/2000/svg">
<path d="M2.5 17.3333V9.70832C1.75 9.51388 1.14583 9.11804 0.6875 8.52082C0.229167 7.9236 0 7.24999 0 6.49999V0.666656H1.66667V5.66666H2.5V0.666656H4.16667V5.66666H5V0.666656H6.66667V6.49999C6.66667 7.24999 6.4375 7.9236 5.97917 8.52082C5.52083 9.11804 4.91667 9.51388 4.16667 9.70832V17.3333H2.5ZM10.8333 17.3333V9.39582C10.0833 9.14582 9.47917 8.62152 9.02083 7.82291C8.5625 7.0243 8.33333 6.11805 8.33333 5.10416C8.33333 3.86805 8.65972 2.81943 9.3125 1.95832C9.96528 1.09721 10.75 0.666656 11.6667 0.666656C12.5833 0.666656 13.3681 1.10068 14.0208 1.96874C14.6736 2.8368 15 3.88888 15 5.12499C15 6.13888 14.7708 7.04166 14.3125 7.83332C13.8542 8.62499 13.25 9.14582 12.5 9.39582V17.3333H10.8333Z" fill="#92852D"/>
</svg>
