<svg width="120" height="48" viewBox="0 0 120 48" fill="none" xmlns="http://www.w3.org/2000/svg">
<path d="M9.78135 9.79872L9.53604 9.93619C6.96995 11.3741 5.19764 14.2784 5.19764 17.6475L5.19764 17.7445L5.16135 17.8345L4.69764 17.6475L5.16133 17.8345L5.16129 17.8346L5.16116 17.8349L5.16071 17.8361L5.15903 17.8402L5.15267 17.8559L5.12841 17.9153C5.10731 17.9668 5.07663 18.0411 5.03799 18.1336C4.96075 18.3183 4.8515 18.5757 4.72329 18.8664C4.46884 19.4435 4.13258 20.1686 3.82084 20.7176M9.78135 9.79872L3.38604 20.4707M9.78135 9.79872L9.7913 9.5177C9.97005 4.47174 13.8154 0.500003 18.4615 0.500003L101.538 0.499999C106.185 0.499999 110.03 4.47173 110.209 9.5177L110.219 9.79872L110.464 9.93618C113.03 11.3741 114.802 14.2784 114.802 17.6475L114.802 17.7445L114.839 17.8345L115.302 17.6475C115.302 17.6475 116.017 19.4189 116.614 20.4707L116.179 20.7174C116.179 20.7175 116.179 20.7175 116.179 20.7176C116.385 21.0806 116.727 21.4463 117.086 21.7764C117.454 22.113 117.872 22.4412 118.262 22.7266C118.553 22.9402 118.833 23.1324 119.068 23.2895C119.055 23.2982 119.041 23.307 119.027 23.316C118.61 23.5909 118.061 23.9717 117.551 24.388C117.008 24.8312 116.447 25.3629 116.172 25.8834L116.172 25.8837C115.811 26.5668 115.473 27.4815 115.229 28.207C115.105 28.5735 115.004 28.8987 114.933 29.1324C114.897 29.2494 114.87 29.3437 114.851 29.409L114.829 29.4845L114.823 29.5046L114.822 29.5099L114.821 29.5114L114.821 29.5118L114.821 29.512L115.302 29.6475L114.821 29.5121L114.802 29.5785L114.802 29.6475C114.802 33.0127 113.033 35.9142 110.47 37.3531L110.215 37.4964L110.215 37.7891L110.215 38.1172C110.215 43.3356 106.296 47.5 101.538 47.5L18.4615 47.5C13.7036 47.5 9.78486 43.3356 9.78486 38.1172L9.78486 37.7891L9.78486 37.4964L9.52963 37.3531C6.96668 35.9142 5.19764 33.0127 5.19764 29.6475L5.19764 29.5785L5.17896 29.5121L4.69764 29.6475L5.17894 29.512L5.1789 29.5118L5.17878 29.5114L5.17836 29.5099L5.17685 29.5046L5.17113 29.4845L5.14932 29.409C5.13031 29.3437 5.10253 29.2494 5.0671 29.1324C4.99628 28.8987 4.89469 28.5735 4.77137 28.207C4.52726 27.4816 4.18897 26.567 3.82829 25.8839L9.78135 9.79872ZM3.82084 20.7176L3.38604 20.4707M3.82084 20.7176C3.82087 20.7175 3.8209 20.7175 3.82093 20.7174L3.38604 20.4707M3.82084 20.7176C3.61485 21.0806 3.27338 21.4463 2.9135 21.7764C2.54638 22.113 2.12813 22.4412 1.73828 22.7266C1.44677 22.9401 1.16766 23.1323 0.932349 23.2893M3.38604 20.4707C2.89304 21.3397 1.2793 22.4663 0.470665 22.9951C0.578166 23.0616 0.720764 23.1514 0.886713 23.2595C0.901729 23.2693 0.916944 23.2792 0.932349 23.2893M0.932349 23.2893C1.29869 23.5292 1.77257 23.8546 2.23389 24.2156L2.23392 24.2157C2.8494 24.6975 3.52053 25.3006 3.82819 25.8837L3.38604 26.1172C3.13364 25.6387 2.54319 25.0928 1.92571 24.6094C1.39795 24.1963 0.849545 23.8287 0.473592 23.5879C0.539414 23.5462 0.618508 23.4955 0.708154 23.4371C0.776962 23.3923 0.852109 23.3428 0.932349 23.2893Z" fill="#F8F8CA" stroke="#C3D59B"/>
<mask id="mask0_1_66" style="mask-type:alpha" maskUnits="userSpaceOnUse" x="14" y="12" width="25" height="24">
<rect x="14.5" y="12" width="24" height="24" fill="#D9D9D9"/>
</mask>
<g mask="url(#mask0_1_66)">
<path d="M26.5 29C26.7833 29 27.0208 28.9042 27.2125 28.7125C27.4042 28.5208 27.5 28.2833 27.5 28C27.5 27.7167 27.4042 27.4792 27.2125 27.2875C27.0208 27.0958 26.7833 27 26.5 27C26.2167 27 25.9792 27.0958 25.7875 27.2875C25.5958 27.4792 25.5 27.7167 25.5 28C25.5 28.2833 25.5958 28.5208 25.7875 28.7125C25.9792 28.9042 26.2167 29 26.5 29ZM26.5 25C26.7833 25 27.0208 24.9042 27.2125 24.7125C27.4042 24.5208 27.5 24.2833 27.5 24C27.5 23.7167 27.4042 23.4792 27.2125 23.2875C27.0208 23.0958 26.7833 23 26.5 23C26.2167 23 25.9792 23.0958 25.7875 23.2875C25.5958 23.4792 25.5 23.7167 25.5 24C25.5 24.2833 25.5958 24.5208 25.7875 24.7125C25.9792 24.9042 26.2167 25 26.5 25ZM26.5 21C26.7833 21 27.0208 20.9042 27.2125 20.7125C27.4042 20.5208 27.5 20.2833 27.5 20C27.5 19.7167 27.4042 19.4792 27.2125 19.2875C27.0208 19.0958 26.7833 19 26.5 19C26.2167 19 25.9792 19.0958 25.7875 19.2875C25.5958 19.4792 25.5 19.7167 25.5 20C25.5 20.2833 25.5958 20.5208 25.7875 20.7125C25.9792 20.9042 26.2167 21 26.5 21ZM34.5 32H18.5C17.95 32 17.4792 31.8042 17.0875 31.4125C16.6958 31.0208 16.5 30.55 16.5 30V26C17.05 26 17.5208 25.8042 17.9125 25.4125C18.3042 25.0208 18.5 24.55 18.5 24C18.5 23.45 18.3042 22.9792 17.9125 22.5875C17.5208 22.1958 17.05 22 16.5 22V18C16.5 17.45 16.6958 16.9792 17.0875 16.5875C17.4792 16.1958 17.95 16 18.5 16H34.5C35.05 16 35.5208 16.1958 35.9125 16.5875C36.3042 16.9792 36.5 17.45 36.5 18V22C35.95 22 35.4792 22.1958 35.0875 22.5875C34.6958 22.9792 34.5 23.45 34.5 24C34.5 24.55 34.6958 25.0208 35.0875 25.4125C35.4792 25.8042 35.95 26 36.5 26V30C36.5 30.55 36.3042 31.0208 35.9125 31.4125C35.5208 31.8042 35.05 32 34.5 32ZM34.5 30V27.45C33.8833 27.0833 33.3958 26.5958 33.0375 25.9875C32.6792 25.3792 32.5 24.7167 32.5 24C32.5 23.2833 32.6792 22.6208 33.0375 22.0125C33.3958 21.4042 33.8833 20.9167 34.5 20.55V18H18.5V20.55C19.1167 20.9167 19.6042 21.4042 19.9625 22.0125C20.3208 22.6208 20.5 23.2833 20.5 24C20.5 24.7167 20.3208 25.3792 19.9625 25.9875C19.6042 26.5958 19.1167 27.0833 18.5 27.45V30H34.5Z" fill="#92852D"/>
</g>
<path d="M51.1016 24.8984C51.1016 25.9089 50.6719 26.6901 49.8125 27.2422C48.974 27.7786 47.8229 28.0469 46.3594 28.0469C45.9531 28.0469 45.1562 28.0312 43.9688 28C44.0417 26.3854 44.0781 24.6042 44.0781 22.6562C44.0781 20.8229 44.0417 19.2135 43.9688 17.8281H44.9062C45.0885 17.8281 45.4557 17.8203 46.0078 17.8047C46.5599 17.7891 46.9609 17.7812 47.2109 17.7812C49.3776 17.7812 50.4609 18.5286 50.4609 20.0234C50.4609 21.1901 49.9479 21.9661 48.9219 22.3516V22.4297C50.375 22.6901 51.1016 23.513 51.1016 24.8984ZM49.7812 25.0312C49.7812 23.75 48.6458 23.1094 46.375 23.1094C45.9583 23.1094 45.5911 23.125 45.2734 23.1562C45.2734 24.5469 45.3021 25.7891 45.3594 26.8828C45.5573 26.9297 45.9062 26.9531 46.4062 26.9531C47.6615 26.9531 48.5521 26.7891 49.0781 26.4609C49.5469 26.1641 49.7812 25.6875 49.7812 25.0312ZM49.1484 20.4141C49.1484 19.3359 48.4219 18.7969 46.9688 18.7969C46.2396 18.7969 45.6484 18.8359 45.1953 18.9141C45.237 19.2891 45.2578 20.349 45.2578 22.0938C45.513 22.1042 45.7943 22.1094 46.1016 22.1094C47.1328 22.1094 47.8828 21.9922 48.3516 21.7578C48.8828 21.4974 49.1484 21.0495 49.1484 20.4141ZM60.0391 24.0625C60.0391 25.3958 59.6562 26.4375 58.8906 27.1875C58.125 27.9323 57.224 28.3047 56.1875 28.3047C55.2188 28.3047 54.3854 27.974 53.6875 27.3125C52.9948 26.651 52.6484 25.7188 52.6484 24.5156C52.6484 23.1719 53.0312 22.1224 53.7969 21.3672C54.5677 20.612 55.4714 20.2344 56.5078 20.2344C57.4766 20.2344 58.3073 20.5703 59 21.2422C59.6927 21.9089 60.0391 22.849 60.0391 24.0625ZM58.6875 24.3359C58.6875 23.5234 58.4818 22.8021 58.0703 22.1719C57.6641 21.5365 57.0833 21.2188 56.3281 21.2188C55.5781 21.2188 55 21.5182 54.5938 22.1172C54.1927 22.7161 53.9922 23.4115 53.9922 24.2031C53.9922 25.0208 54.1953 25.7448 54.6016 26.375C55.013 27.0052 55.599 27.3203 56.3594 27.3203C57.1094 27.3203 57.6849 27.0208 58.0859 26.4219C58.487 25.8177 58.6875 25.1224 58.6875 24.3359ZM68.9766 24.0625C68.9766 25.3958 68.5938 26.4375 67.8281 27.1875C67.0625 27.9323 66.1615 28.3047 65.125 28.3047C64.1562 28.3047 63.3229 27.974 62.625 27.3125C61.9323 26.651 61.5859 25.7188 61.5859 24.5156C61.5859 23.1719 61.9688 22.1224 62.7344 21.3672C63.5052 20.612 64.4089 20.2344 65.4453 20.2344C66.4141 20.2344 67.2448 20.5703 67.9375 21.2422C68.6302 21.9089 68.9766 22.849 68.9766 24.0625ZM67.625 24.3359C67.625 23.5234 67.4193 22.8021 67.0078 22.1719C66.6016 21.5365 66.0208 21.2188 65.2656 21.2188C64.5156 21.2188 63.9375 21.5182 63.5312 22.1172C63.1302 22.7161 62.9297 23.4115 62.9297 24.2031C62.9297 25.0208 63.1328 25.7448 63.5391 26.375C63.9505 27.0052 64.5365 27.3203 65.2969 27.3203C66.0469 27.3203 66.6224 27.0208 67.0234 26.4219C67.4245 25.8177 67.625 25.1224 67.625 24.3359ZM77.4766 28H75.6406C75.6406 27.8177 75.1354 27.1224 74.125 25.9141C73.0885 24.6693 72.4375 24.0469 72.1719 24.0469H72.1172C72.1172 25.1615 72.1458 26.4792 72.2031 28H70.8281C70.8958 26.0938 70.9297 24.151 70.9297 22.1719C70.9297 20.1562 70.8542 18.4349 70.7031 17.0078L72.2031 16.9297C72.1458 18.0547 72.1172 20.2396 72.1172 23.4844H72.1719C72.3438 23.4844 72.8828 23.0469 73.7891 22.1719C74.7005 21.2917 75.1562 20.7604 75.1562 20.5781H76.8828C76.8828 20.7448 76.474 21.1771 75.6562 21.875C74.8906 22.526 74.1901 23.0625 73.5547 23.4844V23.5469C74.2005 24.0365 75.0312 24.875 76.0469 26.0625C77 27.1823 77.4766 27.8281 77.4766 28ZM80.0078 28H78.5938C78.6667 26.9583 78.7031 25.7682 78.7031 24.4297C78.7031 22.9245 78.612 21.6615 78.4297 20.6406L79.9922 20.4297C79.9297 21.5182 79.8984 22.8516 79.8984 24.4297C79.8984 25.6797 79.9349 26.8698 80.0078 28ZM80.3359 18.2344C80.3359 18.5 80.25 18.7318 80.0781 18.9297C79.9062 19.1224 79.6641 19.2188 79.3516 19.2188C79.0859 19.2188 78.8776 19.1354 78.7266 18.9688C78.5807 18.7969 78.5078 18.5911 78.5078 18.3516C78.5078 18.0911 78.5964 17.8646 78.7734 17.6719C78.9505 17.4792 79.1953 17.3828 79.5078 17.3828C79.763 17.3828 79.9635 17.4688 80.1094 17.6406C80.2604 17.8073 80.3359 18.0052 80.3359 18.2344ZM88.6953 28H87.2734C87.388 26.6302 87.4453 25.1354 87.4453 23.5156C87.4453 22.7135 87.2812 22.1667 86.9531 21.875C86.6302 21.5781 86.1667 21.4297 85.5625 21.4297C84.8229 21.4297 84.1406 21.6979 83.5156 22.2344C83.5156 24.0104 83.526 25.9323 83.5469 28H82.125C82.2135 26.2292 82.2578 24.9479 82.2578 24.1562C82.2578 22.9375 82.1432 21.7552 81.9141 20.6094L83.2891 20.4141L83.4375 21.3672H83.5C84.2708 20.6693 85.0964 20.3203 85.9766 20.3203C86.8411 20.3203 87.5104 20.513 87.9844 20.8984C88.4583 21.2786 88.6953 21.9583 88.6953 22.9375C88.6953 23.0365 88.6901 23.2318 88.6797 23.5234C88.6693 23.8151 88.6641 24.0104 88.6641 24.1094C88.6641 24.9792 88.6745 26.276 88.6953 28ZM98.0938 19.5938L97.9688 20.6719C97 20.6719 96.4661 20.8281 96.3672 21.1406V21.2188C96.7005 21.625 96.8672 22.0885 96.8672 22.6094C96.8672 23.4219 96.599 24.0938 96.0625 24.625C95.5312 25.151 94.7083 25.4141 93.5938 25.4141C93.099 25.4141 92.7057 25.362 92.4141 25.2578C92.1589 25.4401 92.0312 25.6667 92.0312 25.9375C92.0312 26.2708 92.1823 26.4922 92.4844 26.6016C92.8698 26.7474 93.6745 26.8203 94.8984 26.8203C96.8776 26.8203 97.8672 27.4766 97.8672 28.7891C97.8672 29.7266 97.4818 30.5026 96.7109 31.1172C95.9401 31.7318 94.9427 32.0391 93.7188 32.0391C92.4635 32.0391 91.5677 31.8099 91.0312 31.3516C90.5 30.8984 90.2344 30.3516 90.2344 29.7109C90.2344 29.1276 90.3646 28.6589 90.625 28.3047C90.8906 27.9505 91.2188 27.7318 91.6094 27.6484V27.5781C91.1979 27.3802 90.9922 27 90.9922 26.4375C90.9922 25.9271 91.2526 25.4792 91.7734 25.0938V25.0312C91.4974 24.8958 91.2344 24.6667 90.9844 24.3438C90.7344 24.0208 90.6094 23.6198 90.6094 23.1406C90.6094 22.3125 90.8828 21.638 91.4297 21.1172C91.9766 20.5964 92.7682 20.3359 93.8047 20.3359C94.6536 20.3359 95.3203 20.4896 95.8047 20.7969H95.8906C96.0573 19.9167 96.4948 19.4766 97.2031 19.4766C97.5885 19.4766 97.8854 19.5156 98.0938 19.5938ZM96.6953 29.3203C96.6953 28.8307 96.5156 28.4844 96.1562 28.2812C95.8021 28.0833 95.1328 27.9844 94.1484 27.9844C93.4818 27.9844 92.8724 27.9531 92.3203 27.8906C91.6849 28.1979 91.3672 28.6484 91.3672 29.2422C91.3672 30.513 92.2005 31.1484 93.8672 31.1484C94.737 31.1484 95.4245 30.9792 95.9297 30.6406C96.4401 30.3021 96.6953 29.862 96.6953 29.3203ZM95.6094 22.9297C95.6094 22.3568 95.4271 21.9193 95.0625 21.6172C94.7031 21.3099 94.2448 21.1562 93.6875 21.1562C93.1615 21.1562 92.7214 21.3047 92.3672 21.6016C92.013 21.8932 91.8359 22.3099 91.8359 22.8516C91.8359 23.4193 92.0156 23.8516 92.375 24.1484C92.7396 24.4453 93.2057 24.5938 93.7734 24.5938C94.2943 24.5938 94.7292 24.4505 95.0781 24.1641C95.4323 23.8724 95.6094 23.4609 95.6094 22.9297ZM104.352 25.8828C104.352 27.4036 103.38 28.1641 101.438 28.1641C100.578 28.1641 99.776 28.0781 99.0312 27.9062L99.2734 26.7578C99.9505 27.0182 100.685 27.1484 101.477 27.1484C102.612 27.1484 103.18 26.8255 103.18 26.1797C103.18 25.8672 103.052 25.6198 102.797 25.4375C102.547 25.25 102.13 25.0417 101.547 24.8125C100.807 24.5208 100.271 24.2396 99.9375 23.9688C99.4479 23.5677 99.2031 23.0833 99.2031 22.5156C99.2031 21.9219 99.4271 21.4141 99.875 20.9922C100.323 20.5651 101.005 20.3516 101.922 20.3516C102.818 20.3516 103.536 20.4271 104.078 20.5781L103.836 21.7031C103.273 21.4792 102.622 21.3672 101.883 21.3672C100.883 21.3672 100.383 21.6562 100.383 22.2344C100.383 22.526 100.495 22.763 100.719 22.9453C100.943 23.1224 101.38 23.3385 102.031 23.5938C102.734 23.8698 103.255 24.1406 103.594 24.4062C104.099 24.8177 104.352 25.3099 104.352 25.8828Z" fill="#333333"/>
</svg>
