<svg width="120" height="48" viewBox="0 0 120 48" fill="none" xmlns="http://www.w3.org/2000/svg">
<path d="M9.78135 9.79872L9.53604 9.93619C6.96995 11.3741 5.19764 14.2784 5.19764 17.6475L5.19764 17.7445L5.16135 17.8345L4.69764 17.6475L5.16133 17.8345L5.16129 17.8346L5.16116 17.8349L5.16071 17.8361L5.15903 17.8402L5.15267 17.8559L5.12841 17.9153C5.10731 17.9668 5.07663 18.0411 5.03799 18.1336C4.96075 18.3183 4.8515 18.5757 4.72329 18.8664C4.46884 19.4435 4.13258 20.1686 3.82084 20.7176M9.78135 9.79872L3.38604 20.4707M9.78135 9.79872L9.7913 9.5177C9.97005 4.47174 13.8154 0.500003 18.4615 0.500003L101.538 0.499999C106.185 0.499999 110.03 4.47173 110.209 9.5177L110.219 9.79872L110.464 9.93618C113.03 11.3741 114.802 14.2784 114.802 17.6475L114.802 17.7445L114.839 17.8345L115.302 17.6475C115.302 17.6475 116.017 19.4189 116.614 20.4707L116.179 20.7174C116.179 20.7175 116.179 20.7175 116.179 20.7176C116.385 21.0806 116.727 21.4463 117.086 21.7764C117.454 22.113 117.872 22.4412 118.262 22.7266C118.553 22.9402 118.833 23.1324 119.068 23.2895C119.055 23.2982 119.041 23.307 119.027 23.316C118.61 23.5909 118.061 23.9717 117.551 24.388C117.008 24.8312 116.447 25.3629 116.172 25.8834L116.172 25.8837C115.811 26.5668 115.473 27.4815 115.229 28.207C115.105 28.5735 115.004 28.8987 114.933 29.1324C114.897 29.2494 114.87 29.3437 114.851 29.409L114.829 29.4845L114.823 29.5046L114.822 29.5099L114.821 29.5114L114.821 29.5118L114.821 29.512L115.302 29.6475L114.821 29.5121L114.802 29.5785L114.802 29.6475C114.802 33.0127 113.033 35.9142 110.47 37.3531L110.215 37.4964L110.215 37.7891L110.215 38.1172C110.215 43.3356 106.296 47.5 101.538 47.5L18.4615 47.5C13.7036 47.5 9.78486 43.3356 9.78486 38.1172L9.78486 37.7891L9.78486 37.4964L9.52963 37.3531C6.96668 35.9142 5.19764 33.0127 5.19764 29.6475L5.19764 29.5785L5.17896 29.5121L4.69764 29.6475L5.17894 29.512L5.1789 29.5118L5.17878 29.5114L5.17836 29.5099L5.17685 29.5046L5.17113 29.4845L5.14932 29.409C5.13031 29.3437 5.10253 29.2494 5.0671 29.1324C4.99628 28.8987 4.89469 28.5735 4.77137 28.207C4.52726 27.4816 4.18897 26.567 3.82829 25.8839L9.78135 9.79872ZM3.82084 20.7176L3.38604 20.4707M3.82084 20.7176C3.82087 20.7175 3.8209 20.7175 3.82093 20.7174L3.38604 20.4707M3.82084 20.7176C3.61485 21.0806 3.27338 21.4463 2.9135 21.7764C2.54638 22.113 2.12813 22.4412 1.73828 22.7266C1.44677 22.9401 1.16766 23.1323 0.932349 23.2893M3.38604 20.4707C2.89304 21.3397 1.2793 22.4663 0.470665 22.9951C0.578166 23.0616 0.720764 23.1514 0.886713 23.2595C0.901729 23.2693 0.916944 23.2792 0.932349 23.2893M0.932349 23.2893C1.29869 23.5292 1.77257 23.8546 2.23389 24.2156L2.23392 24.2157C2.8494 24.6975 3.52053 25.3006 3.82819 25.8837L3.38604 26.1172C3.13364 25.6387 2.54319 25.0928 1.92571 24.6094C1.39795 24.1963 0.849545 23.8287 0.473592 23.5879C0.539414 23.5462 0.618508 23.4955 0.708154 23.4371C0.776962 23.3923 0.852109 23.3428 0.932349 23.2893Z" fill="#F8F8CA" stroke="#C3D59B"/>
<mask id="mask0_1_87" style="mask-type:alpha" maskUnits="userSpaceOnUse" x="29" y="12" width="25" height="24">
<rect x="29.5" y="12" width="24" height="24" fill="#D9D9D9"/>
</mask>
<g mask="url(#mask0_1_87)">
<path d="M51.5 34L47.5 30H37.5C36.95 30 36.4792 29.8042 36.0875 29.4125C35.6958 29.0208 35.5 28.55 35.5 28V27H46.5C47.05 27 47.5208 26.8042 47.9125 26.4125C48.3042 26.0208 48.5 25.55 48.5 25V18H49.5C50.05 18 50.5208 18.1958 50.9125 18.5875C51.3042 18.9792 51.5 19.45 51.5 20V34ZM33.5 24.175L34.675 23H44.5V16H33.5V24.175ZM31.5 29V16C31.5 15.45 31.6958 14.9792 32.0875 14.5875C32.4792 14.1958 32.95 14 33.5 14H44.5C45.05 14 45.5208 14.1958 45.9125 14.5875C46.3042 14.9792 46.5 15.45 46.5 16V23C46.5 23.55 46.3042 24.0208 45.9125 24.4125C45.5208 24.8042 45.05 25 44.5 25H35.5L31.5 29Z" fill="#92852D"/>
</g>
<path d="M65.8594 26.7578L65.7578 27.9219C65.1172 28.1146 64.4193 28.2109 63.6641 28.2109C61.8724 28.2109 60.526 27.7214 59.625 26.7422C58.724 25.7578 58.2734 24.5573 58.2734 23.1406C58.2734 21.6562 58.776 20.3776 59.7812 19.3047C60.7865 18.2266 62.138 17.6875 63.8359 17.6875C64.3047 17.6875 64.7995 17.7578 65.3203 17.8984L65.1016 19.1406C64.5026 18.9531 63.9688 18.8594 63.5 18.8594C62.2396 18.8594 61.2839 19.25 60.6328 20.0312C59.9818 20.8125 59.6562 21.7682 59.6562 22.8984C59.6562 24.0495 60.0312 25.0365 60.7812 25.8594C61.5312 26.6823 62.5677 27.0938 63.8906 27.0938C64.3958 27.0938 65.0521 26.9818 65.8594 26.7578ZM73.9453 28H72.5234C72.638 26.6302 72.6953 25.1562 72.6953 23.5781C72.6953 22.7344 72.5365 22.1667 72.2188 21.875C71.9062 21.5781 71.4714 21.4297 70.9141 21.4297C70.1328 21.4297 69.401 21.6979 68.7188 22.2344C68.7188 25.0781 68.7396 27 68.7812 28H67.4062C67.4531 26.625 67.4766 24.6823 67.4766 22.1719C67.4766 19.974 67.401 18.2526 67.25 17.0078L68.7344 16.9297C68.6927 18.5182 68.6719 19.9922 68.6719 21.3516H68.7188C69.5 20.6641 70.3568 20.3203 71.2891 20.3203C72.1224 20.3203 72.7734 20.5156 73.2422 20.9062C73.7109 21.2917 73.9453 21.9714 73.9453 22.9453C73.9453 23.0443 73.9401 23.2396 73.9297 23.5312C73.9193 23.8177 73.9141 24.0703 73.9141 24.2891C73.9141 25.0391 73.9245 26.276 73.9453 28ZM81.8672 28L80.6406 28.0469C80.5781 27.7917 80.5469 27.5495 80.5469 27.3203H80.4688C79.8281 27.9036 78.9557 28.1953 77.8516 28.1953C77.2526 28.1953 76.737 28.0208 76.3047 27.6719C75.8724 27.3177 75.6562 26.8151 75.6562 26.1641C75.6562 25.362 75.9948 24.7188 76.6719 24.2344C77.349 23.7448 78.6068 23.487 80.4453 23.4609C80.4609 23.3359 80.4688 23.1927 80.4688 23.0312C80.4688 22.3906 80.2969 21.9635 79.9531 21.75C79.6146 21.5365 79.099 21.4297 78.4062 21.4297C77.5885 21.4297 76.7839 21.5312 75.9922 21.7344L76.125 20.6562C76.9062 20.4323 77.8047 20.3203 78.8203 20.3203C79.7474 20.3203 80.4635 20.513 80.9688 20.8984C81.474 21.2786 81.7266 21.9297 81.7266 22.8516C81.7266 23.0964 81.7135 23.5417 81.6875 24.1875C81.6667 24.8281 81.6562 25.2552 81.6562 25.4688C81.6562 26.4167 81.7266 27.2604 81.8672 28ZM80.4844 26.4844C80.4583 25.6927 80.4453 24.9818 80.4453 24.3516C79.4661 24.3516 78.7214 24.4245 78.2109 24.5703C77.3568 24.8307 76.9297 25.3281 76.9297 26.0625C76.9297 26.7708 77.4297 27.125 78.4297 27.125C79.2891 27.125 79.974 26.9115 80.4844 26.4844ZM88.1406 26.9219L88.0469 27.9375C87.6354 28.0885 87.2474 28.1641 86.8828 28.1641C85.9453 28.1641 85.3047 27.9271 84.9609 27.4531C84.6172 26.974 84.4453 26.1198 84.4453 24.8906C84.4453 24.0938 84.4505 23.0547 84.4609 21.7734C84.1693 21.7734 83.7396 21.7891 83.1719 21.8203L83.2188 20.6875C83.7135 20.7188 84.1562 20.7344 84.5469 20.7344C84.5469 20.4219 84.5729 19.6797 84.625 18.5078L85.8516 18.3828C85.763 19.4766 85.7188 20.2604 85.7188 20.7344C86.2292 20.7344 86.9792 20.7083 87.9688 20.6562L87.9141 21.8203C86.9766 21.7891 86.224 21.7734 85.6562 21.7734C85.6458 22.5599 85.6406 23.4453 85.6406 24.4297C85.6406 25.5026 85.7526 26.2135 85.9766 26.5625C86.2057 26.9062 86.6276 27.0781 87.2422 27.0781C87.4453 27.0781 87.7448 27.026 88.1406 26.9219Z" fill="#333333"/>
</svg>
