<svg width="120" height="48" viewBox="0 0 120 48" fill="none" xmlns="http://www.w3.org/2000/svg">
<path d="M9.29161 9.5C9.47866 4.21973 13.5126 3.22404e-06 18.4615 3.00772e-06L101.538 -6.2369e-07C106.487 -8.40014e-07 110.521 4.21973 110.708 9.5C113.437 11.0293 115.302 14.1035 115.302 17.6475C115.302 17.6475 116.017 19.4189 116.614 20.4707C117.281 21.6465 120 23.2939 120 23.2939C120 23.2939 118.851 23.9727 117.867 24.7754C117.327 25.2158 116.838 25.6934 116.614 26.1172C115.932 27.4082 115.302 29.6475 115.302 29.6475C115.302 33.1875 113.441 36.2588 110.715 37.7891L110.715 38.1172C110.715 43.5762 106.607 48 101.538 48L18.4615 48C13.3932 48 9.28486 43.5762 9.28486 38.1172L9.28486 37.7891C6.55912 36.2588 4.69764 33.1875 4.69764 29.6475C4.69764 29.6475 4.06776 27.4082 3.38604 26.1172C3.13364 25.6387 2.54319 25.0928 1.92571 24.6094C0.994966 23.8809 -1.07994e-06 23.2939 -1.07994e-06 23.2939C-1.07994e-06 23.2939 2.71897 21.6465 3.38604 20.4707C3.98325 19.4189 4.69764 17.6475 4.69764 17.6475C4.69764 14.1035 6.5625 11.0293 9.29161 9.5Z" fill="#FF016E"/>
<mask id="mask0_1_58" style="mask-type:alpha" maskUnits="userSpaceOnUse" x="26" y="12" width="24" height="24">
<rect x="26" y="12" width="24" height="24" fill="#D9D9D9"/>
</mask>
<g mask="url(#mask0_1_58)">
<path d="M30 33V21L38 15L46 21V33H40V26H36V33H30Z" fill="white"/>
</g>
<path d="M62.9609 28H61.4766C61.5286 26.1979 61.5547 24.5833 61.5547 23.1562H56.875C56.875 24.3125 56.901 25.9271 56.9531 28H55.4688C55.5417 26.099 55.5781 24.3177 55.5781 22.6562C55.5781 20.9167 55.5417 19.3073 55.4688 17.8281H56.9531C56.8906 19.3177 56.8594 20.7656 56.8594 22.1719H61.5703C61.5703 21.0417 61.5391 19.5938 61.4766 17.8281H62.9609C62.8828 19.276 62.8438 20.8854 62.8438 22.6562C62.8438 24.599 62.8828 26.3802 62.9609 28ZM72.6016 24.0625C72.6016 25.3958 72.2188 26.4375 71.4531 27.1875C70.6875 27.9323 69.7865 28.3047 68.75 28.3047C67.7812 28.3047 66.9479 27.974 66.25 27.3125C65.5573 26.651 65.2109 25.7188 65.2109 24.5156C65.2109 23.1719 65.5938 22.1224 66.3594 21.3672C67.1302 20.612 68.0339 20.2344 69.0703 20.2344C70.0391 20.2344 70.8698 20.5703 71.5625 21.2422C72.2552 21.9089 72.6016 22.849 72.6016 24.0625ZM71.25 24.3359C71.25 23.5234 71.0443 22.8021 70.6328 22.1719C70.2266 21.5365 69.6458 21.2188 68.8906 21.2188C68.1406 21.2188 67.5625 21.5182 67.1562 22.1172C66.7552 22.7161 66.5547 23.4115 66.5547 24.2031C66.5547 25.0208 66.7578 25.7448 67.1641 26.375C67.5755 27.0052 68.1615 27.3203 68.9219 27.3203C69.6719 27.3203 70.2474 27.0208 70.6484 26.4219C71.0495 25.8177 71.25 25.1224 71.25 24.3359ZM84.2188 23.4766C84.2188 22.6432 84.0729 22.0938 83.7812 21.8281C83.4948 21.5573 83.0208 21.4219 82.3594 21.4219C81.8021 21.4219 81.2266 21.6953 80.6328 22.2422C80.612 22.8776 80.6016 23.5 80.6016 24.1094C80.6016 24.9792 80.6172 26.276 80.6484 28H79.2266C79.3411 26.5156 79.3984 25.0078 79.3984 23.4766C79.3984 22.6432 79.2526 22.0938 78.9609 21.8281C78.6745 21.5573 78.2135 21.4219 77.5781 21.4219C76.9271 21.4219 76.3177 21.6953 75.75 22.2422C75.75 23.8932 75.7604 25.8125 75.7812 28H74.3594C74.4583 26.2292 74.5078 24.9479 74.5078 24.1562C74.5078 22.9531 74.3906 21.7708 74.1562 20.6094L75.5312 20.4141L75.6719 21.3594H75.75C76.4271 20.6667 77.1797 20.3203 78.0078 20.3203C79.2422 20.3203 80.0365 20.6667 80.3906 21.3594H80.4766C81.263 20.6667 82.0391 20.3203 82.8047 20.3203C83.6797 20.3203 84.3411 20.513 84.7891 20.8984C85.237 21.2839 85.4609 21.9635 85.4609 22.9375C85.4609 23.0365 85.4557 23.2318 85.4453 23.5234C85.4349 23.8151 85.4297 24.0104 85.4297 24.1094C85.4297 24.9792 85.4401 26.276 85.4609 28H84.0391C84.1589 26.6354 84.2188 25.1276 84.2188 23.4766ZM93.9219 23.4141C93.9219 23.6328 93.9115 23.9349 93.8906 24.3203L88.5234 24.4141C88.5755 25.1745 88.8698 25.8125 89.4062 26.3281C89.9427 26.8385 90.6536 27.0938 91.5391 27.0938C92.3307 27.0938 93.0729 26.9974 93.7656 26.8047L93.6328 27.9062C93.1224 28.1094 92.3854 28.2109 91.4219 28.2109C90.0677 28.2109 89.0339 27.8411 88.3203 27.1016C87.612 26.362 87.2578 25.4609 87.2578 24.3984C87.2578 23.263 87.5807 22.2865 88.2266 21.4688C88.8776 20.6458 89.75 20.2344 90.8438 20.2344C91.849 20.2344 92.612 20.5312 93.1328 21.125C93.6589 21.7188 93.9219 22.4818 93.9219 23.4141ZM92.6172 23.4297C92.6172 21.9661 92.0052 21.2344 90.7812 21.2344C89.5312 21.2344 88.7943 21.9948 88.5703 23.5156L92.6172 23.4297Z" fill="white"/>
</svg>
