<svg width="120" height="48" viewBox="0 0 120 48" fill="none" xmlns="http://www.w3.org/2000/svg">
<path d="M9.78135 9.79872L9.53604 9.93619C6.96995 11.3741 5.19764 14.2784 5.19764 17.6475L5.19764 17.7445L5.16135 17.8345L4.69764 17.6475L5.16133 17.8345L5.16129 17.8346L5.16116 17.8349L5.16071 17.8361L5.15903 17.8402L5.15267 17.8559L5.12841 17.9153C5.10731 17.9668 5.07663 18.0411 5.03799 18.1336C4.96075 18.3183 4.8515 18.5757 4.72329 18.8664C4.46884 19.4435 4.13258 20.1686 3.82084 20.7176M9.78135 9.79872L3.38604 20.4707M9.78135 9.79872L9.7913 9.5177C9.97005 4.47174 13.8154 0.500003 18.4615 0.500003L101.538 0.499999C106.185 0.499999 110.03 4.47173 110.209 9.5177L110.219 9.79872L110.464 9.93618C113.03 11.3741 114.802 14.2784 114.802 17.6475L114.802 17.7445L114.839 17.8345L115.302 17.6475C115.302 17.6475 116.017 19.4189 116.614 20.4707L116.179 20.7174C116.179 20.7175 116.179 20.7175 116.179 20.7176C116.385 21.0806 116.727 21.4463 117.086 21.7764C117.454 22.113 117.872 22.4412 118.262 22.7266C118.553 22.9402 118.833 23.1324 119.068 23.2895C119.055 23.2982 119.041 23.307 119.027 23.316C118.61 23.5909 118.061 23.9717 117.551 24.388C117.008 24.8312 116.447 25.3629 116.172 25.8834L116.172 25.8837C115.811 26.5668 115.473 27.4815 115.229 28.207C115.105 28.5735 115.004 28.8987 114.933 29.1324C114.897 29.2494 114.87 29.3437 114.851 29.409L114.829 29.4845L114.823 29.5046L114.822 29.5099L114.821 29.5114L114.821 29.5118L114.821 29.512L115.302 29.6475L114.821 29.5121L114.802 29.5785L114.802 29.6475C114.802 33.0127 113.033 35.9142 110.47 37.3531L110.215 37.4964L110.215 37.7891L110.215 38.1172C110.215 43.3356 106.296 47.5 101.538 47.5L18.4615 47.5C13.7036 47.5 9.78486 43.3356 9.78486 38.1172L9.78486 37.7891L9.78486 37.4964L9.52963 37.3531C6.96668 35.9142 5.19764 33.0127 5.19764 29.6475L5.19764 29.5785L5.17896 29.5121L4.69764 29.6475L5.17894 29.512L5.1789 29.5118L5.17878 29.5114L5.17836 29.5099L5.17685 29.5046L5.17113 29.4845L5.14932 29.409C5.13031 29.3437 5.10253 29.2494 5.0671 29.1324C4.99628 28.8987 4.89469 28.5735 4.77137 28.207C4.52726 27.4816 4.18897 26.567 3.82829 25.8839L9.78135 9.79872ZM3.82084 20.7176L3.38604 20.4707M3.82084 20.7176C3.82087 20.7175 3.8209 20.7175 3.82093 20.7174L3.38604 20.4707M3.82084 20.7176C3.61485 21.0806 3.27338 21.4463 2.9135 21.7764C2.54638 22.113 2.12813 22.4412 1.73828 22.7266C1.44677 22.9401 1.16766 23.1323 0.932349 23.2893M3.38604 20.4707C2.89304 21.3397 1.2793 22.4663 0.470665 22.9951C0.578166 23.0616 0.720764 23.1514 0.886713 23.2595C0.901729 23.2693 0.916944 23.2792 0.932349 23.2893M0.932349 23.2893C1.29869 23.5292 1.77257 23.8546 2.23389 24.2156L2.23392 24.2157C2.8494 24.6975 3.52053 25.3006 3.82819 25.8837L3.38604 26.1172C3.13364 25.6387 2.54319 25.0928 1.92571 24.6094C1.39795 24.1963 0.849545 23.8287 0.473592 23.5879C0.539414 23.5462 0.618508 23.4955 0.708154 23.4371C0.776962 23.3923 0.852109 23.3428 0.932349 23.2893Z" fill="#F8F8CA" stroke="#C3D59B"/>
<mask id="mask0_1_80" style="mask-type:alpha" maskUnits="userSpaceOnUse" x="24" y="12" width="24" height="24">
<rect x="24" y="12" width="24" height="24" fill="#D9D9D9"/>
</mask>
<g mask="url(#mask0_1_80)">
<path d="M36 28.475C37.65 27.1417 38.8958 25.8583 39.7375 24.625C40.5792 23.3917 41 22.2333 41 21.15C41 19.65 40.5333 18.4167 39.6 17.45C38.6667 16.4833 37.4667 16 36 16C34.5333 16 33.3333 16.4833 32.4 17.45C31.4667 18.4167 31 19.65 31 21.15C31 22.2333 31.4208 23.3917 32.2625 24.625C33.1042 25.8583 34.35 27.1417 36 28.475ZM36 31C33.65 29.2667 31.8958 27.5833 30.7375 25.95C29.5792 24.3167 29 22.7167 29 21.15C29 19.0667 29.65 17.3542 30.95 16.0125C32.25 14.6708 33.9333 14 36 14C38.0667 14 39.75 14.6708 41.05 16.0125C42.35 17.3542 43 19.0667 43 21.15C43 22.7167 42.4208 24.3167 41.2625 25.95C40.1042 27.5833 38.35 29.2667 36 31ZM36 23C36.55 23 37.0208 22.8042 37.4125 22.4125C37.8042 22.0208 38 21.55 38 21C38 20.45 37.8042 19.9792 37.4125 19.5875C37.0208 19.1958 36.55 19 36 19C35.45 19 34.9792 19.1958 34.5875 19.5875C34.1958 19.9792 34 20.45 34 21C34 21.55 34.1958 22.0208 34.5875 22.4125C34.9792 22.8042 35.45 23 36 23ZM29 34V32H43V34H29Z" fill="#92852D"/>
</g>
<path d="M60.3281 20.3516C60.3281 21.5391 59.8776 22.4271 58.9766 23.0156C58.0755 23.6042 56.8646 23.8984 55.3438 23.8984C55.151 23.8984 54.9844 23.8932 54.8438 23.8828C54.8438 25.0182 54.8854 26.3906 54.9688 28H53.4688C53.5469 26.5208 53.5859 24.7396 53.5859 22.6562C53.5859 20.8646 53.5469 19.2552 53.4688 17.8281H54.5859C54.7057 17.8281 55.0469 17.8203 55.6094 17.8047C56.1771 17.7891 56.6589 17.7812 57.0547 17.7812C58.0547 17.7812 58.849 18.0104 59.4375 18.4688C60.0312 18.9219 60.3281 19.5495 60.3281 20.3516ZM59.0234 20.8047C59.0234 19.4661 58.1094 18.7969 56.2812 18.7969C55.8333 18.7969 55.3307 18.8359 54.7734 18.9141C54.8099 19.763 54.8281 21.0859 54.8281 22.8828C55.0104 22.8932 55.2344 22.8984 55.5 22.8984C57.849 22.8984 59.0234 22.2005 59.0234 20.8047ZM63.3828 28H61.8828C61.9766 26.2812 62.0234 24.3385 62.0234 22.1719C62.0234 20.0677 61.9479 18.3464 61.7969 17.0078L63.3828 16.9297C63.2839 18.3464 63.2344 20.0938 63.2344 22.1719C63.2344 24.3125 63.2839 26.2552 63.3828 28ZM71.4141 28L70.1875 28.0469C70.125 27.7917 70.0938 27.5495 70.0938 27.3203H70.0156C69.375 27.9036 68.5026 28.1953 67.3984 28.1953C66.7995 28.1953 66.2839 28.0208 65.8516 27.6719C65.4193 27.3177 65.2031 26.8151 65.2031 26.1641C65.2031 25.362 65.5417 24.7188 66.2188 24.2344C66.8958 23.7448 68.1536 23.487 69.9922 23.4609C70.0078 23.3359 70.0156 23.1927 70.0156 23.0312C70.0156 22.3906 69.8438 21.9635 69.5 21.75C69.1615 21.5365 68.6458 21.4297 67.9531 21.4297C67.1354 21.4297 66.3307 21.5312 65.5391 21.7344L65.6719 20.6562C66.4531 20.4323 67.3516 20.3203 68.3672 20.3203C69.2943 20.3203 70.0104 20.513 70.5156 20.8984C71.0208 21.2786 71.2734 21.9297 71.2734 22.8516C71.2734 23.0964 71.2604 23.5417 71.2344 24.1875C71.2135 24.8281 71.2031 25.2552 71.2031 25.4688C71.2031 26.4167 71.2734 27.2604 71.4141 28ZM70.0312 26.4844C70.0052 25.6927 69.9922 24.9818 69.9922 24.3516C69.013 24.3516 68.2682 24.4245 67.7578 24.5703C66.9036 24.8307 66.4766 25.3281 66.4766 26.0625C66.4766 26.7708 66.9766 27.125 67.9766 27.125C68.8359 27.125 69.5208 26.9115 70.0312 26.4844ZM79.0859 26.8047L79.0078 27.8516C78.5859 28.0911 78.0208 28.2109 77.3125 28.2109C75.9635 28.2109 74.9323 27.8385 74.2188 27.0938C73.5052 26.349 73.1484 25.4505 73.1484 24.3984C73.1484 23.2839 73.5234 22.3255 74.2734 21.5234C75.0234 20.7214 76.0156 20.3203 77.25 20.3203C77.8698 20.3203 78.375 20.3828 78.7656 20.5078L78.5547 21.7344C78.0078 21.5312 77.4531 21.4297 76.8906 21.4297C76.151 21.4297 75.5625 21.6875 75.125 22.2031C74.6875 22.7188 74.4688 23.3646 74.4688 24.1406C74.4688 24.9844 74.7292 25.6875 75.25 26.25C75.7708 26.8125 76.5078 27.0938 77.4609 27.0938C77.8516 27.0938 78.3932 26.9974 79.0859 26.8047ZM87.0469 23.4141C87.0469 23.6328 87.0365 23.9349 87.0156 24.3203L81.6484 24.4141C81.7005 25.1745 81.9948 25.8125 82.5312 26.3281C83.0677 26.8385 83.7786 27.0938 84.6641 27.0938C85.4557 27.0938 86.1979 26.9974 86.8906 26.8047L86.7578 27.9062C86.2474 28.1094 85.5104 28.2109 84.5469 28.2109C83.1927 28.2109 82.1589 27.8411 81.4453 27.1016C80.737 26.362 80.3828 25.4609 80.3828 24.3984C80.3828 23.263 80.7057 22.2865 81.3516 21.4688C82.0026 20.6458 82.875 20.2344 83.9688 20.2344C84.974 20.2344 85.737 20.5312 86.2578 21.125C86.7839 21.7188 87.0469 22.4818 87.0469 23.4141ZM85.7422 23.4297C85.7422 21.9661 85.1302 21.2344 83.9062 21.2344C82.6562 21.2344 81.9193 21.9948 81.6953 23.5156L85.7422 23.4297ZM93.8203 25.8828C93.8203 27.4036 92.849 28.1641 90.9062 28.1641C90.0469 28.1641 89.2448 28.0781 88.5 27.9062L88.7422 26.7578C89.4193 27.0182 90.1536 27.1484 90.9453 27.1484C92.0807 27.1484 92.6484 26.8255 92.6484 26.1797C92.6484 25.8672 92.5208 25.6198 92.2656 25.4375C92.0156 25.25 91.599 25.0417 91.0156 24.8125C90.276 24.5208 89.7396 24.2396 89.4062 23.9688C88.9167 23.5677 88.6719 23.0833 88.6719 22.5156C88.6719 21.9219 88.8958 21.4141 89.3438 20.9922C89.7917 20.5651 90.474 20.3516 91.3906 20.3516C92.2865 20.3516 93.0052 20.4271 93.5469 20.5781L93.3047 21.7031C92.7422 21.4792 92.0911 21.3672 91.3516 21.3672C90.3516 21.3672 89.8516 21.6562 89.8516 22.2344C89.8516 22.526 89.9635 22.763 90.1875 22.9453C90.4115 23.1224 90.849 23.3385 91.5 23.5938C92.2031 23.8698 92.724 24.1406 93.0625 24.4062C93.5677 24.8177 93.8203 25.3099 93.8203 25.8828Z" fill="#333333"/>
</svg>
