<svg width="120" height="48" viewBox="0 0 120 48" fill="none" xmlns="http://www.w3.org/2000/svg">
<path d="M9.78135 9.79872L9.53604 9.93619C6.96995 11.3741 5.19764 14.2784 5.19764 17.6475L5.19764 17.7445L5.16135 17.8345L4.69764 17.6475L5.16133 17.8345L5.16129 17.8346L5.16116 17.8349L5.16071 17.8361L5.15903 17.8402L5.15267 17.8559L5.12841 17.9153C5.10731 17.9668 5.07663 18.0411 5.03799 18.1336C4.96075 18.3183 4.8515 18.5757 4.72329 18.8664C4.46884 19.4435 4.13258 20.1686 3.82084 20.7176M9.78135 9.79872L3.38604 20.4707M9.78135 9.79872L9.7913 9.5177C9.97005 4.47174 13.8154 0.500003 18.4615 0.500003L101.538 0.499999C106.185 0.499999 110.03 4.47173 110.209 9.5177L110.219 9.79872L110.464 9.93618C113.03 11.3741 114.802 14.2784 114.802 17.6475L114.802 17.7445L114.839 17.8345L115.302 17.6475C115.302 17.6475 116.017 19.4189 116.614 20.4707L116.179 20.7174C116.179 20.7175 116.179 20.7175 116.179 20.7176C116.385 21.0806 116.727 21.4463 117.086 21.7764C117.454 22.113 117.872 22.4412 118.262 22.7266C118.553 22.9402 118.833 23.1324 119.068 23.2895C119.055 23.2982 119.041 23.307 119.027 23.316C118.61 23.5909 118.061 23.9717 117.551 24.388C117.008 24.8312 116.447 25.3629 116.172 25.8834L116.172 25.8837C115.811 26.5668 115.473 27.4815 115.229 28.207C115.105 28.5735 115.004 28.8987 114.933 29.1324C114.897 29.2494 114.87 29.3437 114.851 29.409L114.829 29.4845L114.823 29.5046L114.822 29.5099L114.821 29.5114L114.821 29.5118L114.821 29.512L115.302 29.6475L114.821 29.5121L114.802 29.5785L114.802 29.6475C114.802 33.0127 113.033 35.9142 110.47 37.3531L110.215 37.4964L110.215 37.7891L110.215 38.1172C110.215 43.3356 106.296 47.5 101.538 47.5L18.4615 47.5C13.7036 47.5 9.78486 43.3356 9.78486 38.1172L9.78486 37.7891L9.78486 37.4964L9.52963 37.3531C6.96668 35.9142 5.19764 33.0127 5.19764 29.6475L5.19764 29.5785L5.17896 29.5121L4.69764 29.6475L5.17894 29.512L5.1789 29.5118L5.17878 29.5114L5.17836 29.5099L5.17685 29.5046L5.17113 29.4845L5.14932 29.409C5.13031 29.3437 5.10253 29.2494 5.0671 29.1324C4.99628 28.8987 4.89469 28.5735 4.77137 28.207C4.52726 27.4816 4.18897 26.567 3.82829 25.8839L9.78135 9.79872ZM3.82084 20.7176L3.38604 20.4707M3.82084 20.7176C3.82087 20.7175 3.8209 20.7175 3.82093 20.7174L3.38604 20.4707M3.82084 20.7176C3.61485 21.0806 3.27338 21.4463 2.9135 21.7764C2.54638 22.113 2.12813 22.4412 1.73828 22.7266C1.44677 22.9401 1.16766 23.1323 0.932349 23.2893M3.38604 20.4707C2.89304 21.3397 1.2793 22.4663 0.470665 22.9951C0.578166 23.0616 0.720764 23.1514 0.886713 23.2595C0.901729 23.2693 0.916944 23.2792 0.932349 23.2893M0.932349 23.2893C1.29869 23.5292 1.77257 23.8546 2.23389 24.2156L2.23392 24.2157C2.8494 24.6975 3.52053 25.3006 3.82819 25.8837L3.38604 26.1172C3.13364 25.6387 2.54319 25.0928 1.92571 24.6094C1.39795 24.1963 0.849545 23.8287 0.473592 23.5879C0.539414 23.5462 0.618508 23.4955 0.708154 23.4371C0.776962 23.3923 0.852109 23.3428 0.932349 23.2893Z" fill="#F8F8CA" stroke="#C3D59B"/>
<mask id="mask0_1_73" style="mask-type:alpha" maskUnits="userSpaceOnUse" x="27" y="12" width="25" height="24">
<rect x="27.25" y="12" width="24" height="24" fill="#D9D9D9"/>
</mask>
<g mask="url(#mask0_1_73)">
<path d="M30.25 31C29.7 31 29.2292 30.8042 28.8375 30.4125C28.4458 30.0208 28.25 29.55 28.25 29V19C28.25 18.45 28.4458 17.9792 28.8375 17.5875C29.2292 17.1958 29.7 17 30.25 17H40.25C40.8 17 41.2708 17.1958 41.6625 17.5875C42.0542 17.9792 42.25 18.45 42.25 19V29C42.25 29.55 42.0542 30.0208 41.6625 30.4125C41.2708 30.8042 40.8 31 40.25 31H30.25ZM45.25 23C44.9667 23 44.7292 22.9042 44.5375 22.7125C44.3458 22.5208 44.25 22.2833 44.25 22V18C44.25 17.7167 44.3458 17.4792 44.5375 17.2875C44.7292 17.0958 44.9667 17 45.25 17H49.25C49.5333 17 49.7708 17.0958 49.9625 17.2875C50.1542 17.4792 50.25 17.7167 50.25 18V22C50.25 22.2833 50.1542 22.5208 49.9625 22.7125C49.7708 22.9042 49.5333 23 49.25 23H45.25ZM46.25 21H48.25V19H46.25V21ZM30.25 29H40.25V19H30.25V29ZM31.25 27H39.25L36.625 23.5L34.75 26L33.375 24.175L31.25 27ZM45.25 31C44.9667 31 44.7292 30.9042 44.5375 30.7125C44.3458 30.5208 44.25 30.2833 44.25 30V26C44.25 25.7167 44.3458 25.4792 44.5375 25.2875C44.7292 25.0958 44.9667 25 45.25 25H49.25C49.5333 25 49.7708 25.0958 49.9625 25.2875C50.1542 25.4792 50.25 25.7167 50.25 26V30C50.25 30.2833 50.1542 30.5208 49.9625 30.7125C49.7708 30.9042 49.5333 31 49.25 31H45.25ZM46.25 29H48.25V27H46.25V29Z" fill="#92852D"/>
</g>
<path d="M63.5781 20.3516C63.5781 21.5391 63.1276 22.4271 62.2266 23.0156C61.3255 23.6042 60.1146 23.8984 58.5938 23.8984C58.401 23.8984 58.2344 23.8932 58.0938 23.8828C58.0938 25.0182 58.1354 26.3906 58.2188 28H56.7188C56.7969 26.5208 56.8359 24.7396 56.8359 22.6562C56.8359 20.8646 56.7969 19.2552 56.7188 17.8281H57.8359C57.9557 17.8281 58.2969 17.8203 58.8594 17.8047C59.4271 17.7891 59.9089 17.7812 60.3047 17.7812C61.3047 17.7812 62.099 18.0104 62.6875 18.4688C63.2812 18.9219 63.5781 19.5495 63.5781 20.3516ZM62.2734 20.8047C62.2734 19.4661 61.3594 18.7969 59.5312 18.7969C59.0833 18.7969 58.5807 18.8359 58.0234 18.9141C58.0599 19.763 58.0781 21.0859 58.0781 22.8828C58.2604 22.8932 58.4844 22.8984 58.75 22.8984C61.099 22.8984 62.2734 22.2005 62.2734 20.8047ZM72.2578 24.0625C72.2578 25.3958 71.875 26.4375 71.1094 27.1875C70.3438 27.9323 69.4427 28.3047 68.4062 28.3047C67.4375 28.3047 66.6042 27.974 65.9062 27.3125C65.2135 26.651 64.8672 25.7188 64.8672 24.5156C64.8672 23.1719 65.25 22.1224 66.0156 21.3672C66.7865 20.612 67.6901 20.2344 68.7266 20.2344C69.6953 20.2344 70.526 20.5703 71.2188 21.2422C71.9115 21.9089 72.2578 22.849 72.2578 24.0625ZM70.9062 24.3359C70.9062 23.5234 70.7005 22.8021 70.2891 22.1719C69.8828 21.5365 69.3021 21.2188 68.5469 21.2188C67.7969 21.2188 67.2188 21.5182 66.8125 22.1172C66.4115 22.7161 66.2109 23.4115 66.2109 24.2031C66.2109 25.0208 66.4141 25.7448 66.8203 26.375C67.2318 27.0052 67.8177 27.3203 68.5781 27.3203C69.3281 27.3203 69.9036 27.0208 70.3047 26.4219C70.7057 25.8177 70.9062 25.1224 70.9062 24.3359ZM79.0234 25.8828C79.0234 27.4036 78.0521 28.1641 76.1094 28.1641C75.25 28.1641 74.4479 28.0781 73.7031 27.9062L73.9453 26.7578C74.6224 27.0182 75.3568 27.1484 76.1484 27.1484C77.2839 27.1484 77.8516 26.8255 77.8516 26.1797C77.8516 25.8672 77.724 25.6198 77.4688 25.4375C77.2188 25.25 76.8021 25.0417 76.2188 24.8125C75.4792 24.5208 74.9427 24.2396 74.6094 23.9688C74.1198 23.5677 73.875 23.0833 73.875 22.5156C73.875 21.9219 74.099 21.4141 74.5469 20.9922C74.9948 20.5651 75.6771 20.3516 76.5938 20.3516C77.4896 20.3516 78.2083 20.4271 78.75 20.5781L78.5078 21.7031C77.9453 21.4792 77.2943 21.3672 76.5547 21.3672C75.5547 21.3672 75.0547 21.6562 75.0547 22.2344C75.0547 22.526 75.1667 22.763 75.3906 22.9453C75.6146 23.1224 76.0521 23.3385 76.7031 23.5938C77.4062 23.8698 77.9271 24.1406 78.2656 24.4062C78.7708 24.8177 79.0234 25.3099 79.0234 25.8828ZM85.0469 26.9219L84.9531 27.9375C84.5417 28.0885 84.1536 28.1641 83.7891 28.1641C82.8516 28.1641 82.2109 27.9271 81.8672 27.4531C81.5234 26.974 81.3516 26.1198 81.3516 24.8906C81.3516 24.0938 81.3568 23.0547 81.3672 21.7734C81.0755 21.7734 80.6458 21.7891 80.0781 21.8203L80.125 20.6875C80.6198 20.7188 81.0625 20.7344 81.4531 20.7344C81.4531 20.4219 81.4792 19.6797 81.5312 18.5078L82.7578 18.3828C82.6693 19.4766 82.625 20.2604 82.625 20.7344C83.1354 20.7344 83.8854 20.7083 84.875 20.6562L84.8203 21.8203C83.8828 21.7891 83.1302 21.7734 82.5625 21.7734C82.5521 22.5599 82.5469 23.4453 82.5469 24.4297C82.5469 25.5026 82.6589 26.2135 82.8828 26.5625C83.112 26.9062 83.5339 27.0781 84.1484 27.0781C84.3516 27.0781 84.651 27.026 85.0469 26.9219ZM91.4766 25.8828C91.4766 27.4036 90.5052 28.1641 88.5625 28.1641C87.7031 28.1641 86.901 28.0781 86.1562 27.9062L86.3984 26.7578C87.0755 27.0182 87.8099 27.1484 88.6016 27.1484C89.737 27.1484 90.3047 26.8255 90.3047 26.1797C90.3047 25.8672 90.1771 25.6198 89.9219 25.4375C89.6719 25.25 89.2552 25.0417 88.6719 24.8125C87.9323 24.5208 87.3958 24.2396 87.0625 23.9688C86.5729 23.5677 86.3281 23.0833 86.3281 22.5156C86.3281 21.9219 86.5521 21.4141 87 20.9922C87.4479 20.5651 88.1302 20.3516 89.0469 20.3516C89.9427 20.3516 90.6615 20.4271 91.2031 20.5781L90.9609 21.7031C90.3984 21.4792 89.7474 21.3672 89.0078 21.3672C88.0078 21.3672 87.5078 21.6562 87.5078 22.2344C87.5078 22.526 87.6198 22.763 87.8438 22.9453C88.0677 23.1224 88.5052 23.3385 89.1562 23.5938C89.8594 23.8698 90.3802 24.1406 90.7188 24.4062C91.224 24.8177 91.4766 25.3099 91.4766 25.8828Z" fill="#333333"/>
</svg>
